<svg width="13" height="16" viewBox="0 0 13 16" fill="none" xmlns="http://www.w3.org/2000/svg">
<path d="M12.8045 11.0951C12.4595 11.859 12.2945 12.2005 11.8514 12.8755C11.2324 13.8182 10.3584 14.9946 9.27777 15.0026C8.31662 15.0107 8.06854 14.3755 6.76412 14.3859C5.4597 14.3922 5.18797 15.0142 4.22566 15.0044C3.14508 14.9946 2.31777 13.9347 1.69816 12.9938C-0.0343405 10.3544 -0.217225 7.2609 0.853544 5.61494C1.61104 4.44782 2.80989 3.76244 3.93547 3.76244C5.08181 3.76244 5.80239 4.39244 6.75027 4.39244C7.66989 4.39244 8.23008 3.76071 9.55585 3.76071C10.5585 3.76071 11.6189 4.30705 12.3764 5.24974C9.89797 6.60782 10.3007 10.1478 12.8045 11.0951ZM8.5497 2.70724C9.03201 2.08821 9.39777 1.21474 9.26508 0.323975C8.47816 0.377628 7.55797 0.880128 7.02028 1.5309C6.53335 2.1234 6.12951 3.00378 6.28701 3.85532C7.14547 3.88301 8.03393 3.37128 8.5497 2.70724Z" fill="#222222"/>
</svg>
