<svg width="16" height="15" viewBox="0 0 16 15" fill="none" xmlns="http://www.w3.org/2000/svg">
<path d="M1.24042 10.465L0.760154 10.3259L0.760153 10.3259L1.24042 10.465ZM2.07881 7.5702L1.59855 7.4311L1.59855 7.4311L2.07881 7.5702ZM2.08132 7.45114L2.56702 7.33241L2.56702 7.33241L2.08132 7.45114ZM1.02345 3.12349L0.53775 3.24221L0.53775 3.24221L1.02345 3.12349ZM1.02921 2.99412L0.555979 2.83271L0.555979 2.83271L1.02921 2.99412ZM1.65602 1.15643L2.12925 1.31784H2.12925L1.65602 1.15643ZM1.95642 1.01507L2.13369 0.547552L1.95642 1.01507ZM6.1301 2.59766L5.95283 3.06518V3.06518L6.1301 2.59766ZM1.24037 10.5933L1.72073 10.4546H1.72073L1.24037 10.5933ZM2.01694 13.2815L1.53658 13.4202L1.53658 13.4202L2.01694 13.2815ZM2.29735 13.4407L2.17049 12.9571L2.17049 12.9571L2.29735 13.4407ZM4.99621 12.7328L4.86936 12.2492L4.86936 12.2492L4.99621 12.7328ZM5.1844 12.7651L5.46507 12.3513L5.46506 12.3513L5.1844 12.7651ZM6.93561 13.9528L6.65494 14.3666L6.65495 14.3666L6.93561 13.9528ZM14.7933 10.465L15.2735 10.3259L15.2735 10.3259L14.7933 10.465ZM13.9549 7.5702L14.4351 7.4311V7.4311L13.9549 7.5702ZM13.9524 7.45114L14.4381 7.56986V7.56986L13.9524 7.45114ZM15.0102 3.12349L14.5245 3.00475L14.5245 3.00476L15.0102 3.12349ZM15.0045 2.99412L14.5313 3.15553V3.15553L15.0045 2.99412ZM14.3777 1.15643L14.8509 0.995019V0.995018L14.3777 1.15643ZM14.0773 1.01507L14.2545 1.48259V1.48259L14.0773 1.01507ZM9.90359 2.59766L10.0809 3.06518L10.0809 3.06518L9.90359 2.59766ZM14.7933 10.5933L14.313 10.4546L14.313 10.4546L14.7933 10.5933ZM14.0167 13.2815L14.4971 13.4202L14.4971 13.4202L14.0167 13.2815ZM13.7363 13.4407L13.8632 12.9571L13.8632 12.9571L13.7363 13.4407ZM11.0375 12.7328L11.1643 12.2492L11.1643 12.2492L11.0375 12.7328ZM10.8493 12.7651L10.5686 12.3513L10.5686 12.3513L10.8493 12.7651ZM9.09809 13.9528L9.37874 14.3666L9.37875 14.3666L9.09809 13.9528ZM6.90756 5.05359L7.20864 5.45278L6.90756 5.05359ZM5.21069 6.33343L5.51177 6.73262L5.21069 6.33343ZM5.14309 6.3665L5.2734 6.84922L5.2734 6.84922L5.14309 6.3665ZM2.68313 7.03054L2.81343 7.51326L2.81343 7.51326L2.68313 7.03054ZM2.4404 6.89077L1.95749 7.02038L1.95749 7.02038L2.4404 6.89077ZM1.48472 3.3301L1.00181 3.45971L1.00181 3.45971L1.48472 3.3301ZM1.48828 3.21571L1.9622 3.37508L1.9622 3.37508L1.48828 3.21571ZM2.0121 1.65803L1.53818 1.49866V1.49866L2.0121 1.65803ZM2.31229 1.55835L2.59676 1.14716L2.59676 1.14716L2.31229 1.55835ZM6.90098 4.73282L6.61652 5.14402L6.90098 4.73282ZM9.12613 5.05359L8.82505 5.45278L9.12613 5.05359ZM10.823 6.33343L10.5219 6.73262L10.823 6.33343ZM10.8906 6.3665L10.7603 6.84922L10.7603 6.84922L10.8906 6.3665ZM13.3506 7.03054L13.2203 7.51326L13.2203 7.51326L13.3506 7.03054ZM13.5933 6.89077L14.0762 7.02038V7.02038L13.5933 6.89077ZM14.549 3.3301L15.0319 3.45971V3.45971L14.549 3.3301ZM14.5454 3.21571L14.0715 3.37508L14.5454 3.21571ZM14.0216 1.65803L13.5477 1.8174V1.8174L14.0216 1.65803ZM13.7214 1.55835L13.4369 1.14716V1.14716L13.7214 1.55835ZM9.13271 4.73282L9.41717 5.14402L9.13271 4.73282ZM5.62333 9.06808L5.39735 8.62207L5.62333 9.06808ZM6.36538 8.69211L6.1394 8.24609H6.1394L6.36538 8.69211ZM6.54268 8.75012L6.98859 8.52393L6.54268 8.75012ZM6.89016 9.43515L6.44425 9.66134L6.44425 9.66134L6.89016 9.43515ZM6.69834 9.66851L6.56271 10.1498H6.56271L6.69834 9.66851ZM5.65313 9.37395L5.78876 8.8927L5.65313 9.37395ZM10.4104 9.06808L10.6363 8.62207L10.4104 9.06808ZM9.66831 8.69211L9.8943 8.24609L9.66831 8.69211ZM9.49101 8.75012L9.0451 8.52393V8.52393L9.49101 8.75012ZM9.14353 9.43515L9.58945 9.66134V9.66134L9.14353 9.43515ZM9.33535 9.66851L9.47098 10.1498L9.33535 9.66851ZM10.3806 9.37395L10.2449 8.8927L10.3806 9.37395ZM6.92491 12.5623L6.42697 12.5171L6.92491 12.5623ZM6.98307 11.9226L7.48102 11.9678L7.48102 11.9678L6.98307 11.9226ZM7.09 11.7203L7.40785 12.1063L7.09 11.7203ZM7.19246 11.6359L7.51031 12.0219L7.51031 12.0219L7.19246 11.6359ZM9.10878 12.5623L9.60672 12.5171L9.10878 12.5623ZM9.05062 11.9226L8.55267 11.9678V11.9678L9.05062 11.9226ZM8.94369 11.7203L9.26155 11.3343L9.26155 11.3343L8.94369 11.7203ZM8.84123 11.6359L8.52338 12.0219L8.52338 12.0219L8.84123 11.6359ZM1.72068 10.6041L2.55907 7.70929L1.59855 7.4311L0.760154 10.3259L1.72068 10.6041ZM2.56702 7.33241L1.50915 3.00476L0.53775 3.24221L1.59562 7.56986L2.56702 7.33241ZM1.50244 3.15553L2.12925 1.31784L1.18279 0.995019L0.555979 2.83271L1.50244 3.15553ZM1.77914 1.48259L5.95283 3.06518L6.30738 2.13014L2.13369 0.547552L1.77914 1.48259ZM0.760017 10.7321L1.53658 13.4202L2.4973 13.1427L1.72073 10.4546L0.760017 10.7321ZM2.42421 13.9244L5.12307 13.2165L4.86936 12.2492L2.17049 12.9571L2.42421 13.9244ZM4.90374 13.1789L6.65494 14.3666L7.21627 13.539L5.46507 12.3513L4.90374 13.1789ZM6.65495 14.3666C6.77601 14.4487 6.91892 14.4926 7.06521 14.4926V13.4926C7.11908 13.4926 7.17169 13.5088 7.21626 13.539L6.65495 14.3666ZM5.12306 13.2165C5.04796 13.2362 4.96801 13.2225 4.90374 13.1789L5.46506 12.3513C5.29052 12.2329 5.07336 12.1957 4.86936 12.2492L5.12306 13.2165ZM1.53658 13.4202C1.64666 13.8013 2.04056 14.025 2.42421 13.9244L2.17049 12.9571C2.31175 12.92 2.45677 13.0024 2.4973 13.1427L1.53658 13.4202ZM5.95283 3.06518C6.03562 3.09657 6.12342 3.11266 6.21197 3.11266V2.11266C6.24457 2.11266 6.27689 2.11858 6.30738 2.13014L5.95283 3.06518ZM2.12925 1.31784C2.08012 1.46187 1.92143 1.53654 1.77914 1.48259L2.13369 0.547552C1.74722 0.401009 1.31622 0.603825 1.18279 0.995019L2.12925 1.31784ZM1.50915 3.00476C1.52134 3.05463 1.51901 3.10694 1.50244 3.15553L0.555979 2.83271C0.510966 2.96468 0.504641 3.10677 0.53775 3.24221L1.50915 3.00476ZM2.55907 7.70929C2.59463 7.58652 2.59737 7.45657 2.56702 7.33241L1.59562 7.56986C1.58445 7.52415 1.58545 7.47631 1.59855 7.4311L2.55907 7.70929ZM0.760153 10.3259C0.721733 10.4586 0.721685 10.5994 0.760017 10.7321L1.72073 10.4546C1.73484 10.5034 1.73483 10.5553 1.72068 10.6041L0.760153 10.3259ZM15.2735 10.3259L14.4351 7.4311L13.4746 7.70929L14.313 10.6041L15.2735 10.3259ZM14.4381 7.56986L15.4959 3.24221L14.5245 3.00476L13.4667 7.33241L14.4381 7.56986ZM15.4777 2.83271L14.8509 0.995019L13.9044 1.31784L14.5313 3.15553L15.4777 2.83271ZM13.9 0.547552L9.72632 2.13014L10.0809 3.06518L14.2545 1.48259L13.9 0.547552ZM14.313 10.4546L13.5364 13.1427L14.4971 13.4202L15.2737 10.7321L14.313 10.4546ZM13.8632 12.9571L11.1643 12.2492L10.9106 13.2165L13.6095 13.9244L13.8632 12.9571ZM10.5686 12.3513L8.81742 13.539L9.37875 14.3666L11.1299 13.1789L10.5686 12.3513ZM8.81743 13.539C8.862 13.5088 8.91462 13.4926 8.96848 13.4926V14.4926C9.11477 14.4926 9.25768 14.4487 9.37874 14.3666L8.81743 13.539ZM11.1643 12.2492C10.9603 12.1957 10.7432 12.2329 10.5686 12.3513L11.1299 13.1789C11.0657 13.2225 10.9857 13.2362 10.9106 13.2165L11.1643 12.2492ZM13.5364 13.1427C13.5769 13.0024 13.7219 12.92 13.8632 12.9571L13.6095 13.9244C13.9931 14.025 14.387 13.8013 14.4971 13.4202L13.5364 13.1427ZM9.72632 2.13014C9.7568 2.11858 9.78913 2.11266 9.82172 2.11266V3.11266C9.91027 3.11266 9.99807 3.09657 10.0809 3.06518L9.72632 2.13014ZM14.8509 0.995018C14.7175 0.603826 14.2865 0.401009 13.9 0.547552L14.2545 1.48259C14.1123 1.53654 13.9536 1.46187 13.9044 1.31784L14.8509 0.995018ZM15.4959 3.24222C15.529 3.10677 15.5227 2.96468 15.4777 2.83271L14.5313 3.15553C14.5147 3.10694 14.5124 3.05462 14.5245 3.00475L15.4959 3.24222ZM14.4351 7.4311C14.4482 7.47631 14.4492 7.52415 14.4381 7.56986L13.4667 7.33241C13.4363 7.45657 13.4391 7.58652 13.4746 7.70929L14.4351 7.4311ZM14.313 10.6041C14.2989 10.5553 14.2988 10.5034 14.313 10.4546L15.2737 10.7321C15.312 10.5994 15.312 10.4586 15.2735 10.3259L14.313 10.6041ZM6.21197 3.11266H9.82172V2.11266H6.21197V3.11266ZM7.06521 14.4926H8.96848V13.4926H7.06521V14.4926ZM6.60648 4.6544L4.90961 5.93424L5.51177 6.73262L7.20864 5.45278L6.60648 4.6544ZM5.01279 5.88377L2.55282 6.54781L2.81343 7.51326L5.2734 6.84922L5.01279 5.88377ZM2.92331 6.76115L1.96763 3.20049L1.00181 3.45971L1.95749 7.02038L2.92331 6.76115ZM1.9622 3.37508L2.48602 1.8174L1.53818 1.49866L1.01436 3.05634L1.9622 3.37508ZM2.02783 1.96955L6.61652 5.14402L7.18545 4.32163L2.59676 1.14716L2.02783 1.96955ZM2.48602 1.8174C2.42195 2.00793 2.19314 2.08391 2.02783 1.96955L2.59676 1.14716C2.21484 0.882945 1.68621 1.05848 1.53818 1.49866L2.48602 1.8174ZM1.96763 3.20049C1.98305 3.25795 1.98117 3.31869 1.9622 3.37508L1.01436 3.05634C0.970547 3.18663 0.966182 3.32695 1.00181 3.45971L1.96763 3.20049ZM2.55282 6.54781C2.71406 6.50429 2.88002 6.59986 2.92331 6.76115L1.95749 7.02038C2.05751 7.39303 2.44092 7.61381 2.81343 7.51326L2.55282 6.54781ZM4.90961 5.93424C4.94046 5.91098 4.97549 5.89384 5.01278 5.88378L5.2734 6.84922C5.35958 6.82595 5.4405 6.78637 5.51177 6.73262L4.90961 5.93424ZM7.20864 5.45278C7.5884 5.16635 7.57663 4.59225 7.18545 4.32163L6.61652 5.14402C6.44719 5.02688 6.4421 4.77838 6.60648 4.6544L7.20864 5.45278ZM8.82505 5.45278L10.5219 6.73262L11.1241 5.93424L9.42721 4.6544L8.82505 5.45278ZM10.7603 6.84922L13.2203 7.51326L13.4809 6.54781L11.0209 5.88377L10.7603 6.84922ZM14.0762 7.02038L15.0319 3.45971L14.0661 3.20049L13.1104 6.76115L14.0762 7.02038ZM15.0193 3.05634L14.4955 1.49866L13.5477 1.8174L14.0715 3.37508L15.0193 3.05634ZM13.4369 1.14716L8.84824 4.32163L9.41717 5.14402L14.0059 1.96955L13.4369 1.14716ZM14.4955 1.49866C14.3475 1.05848 13.8189 0.882945 13.4369 1.14716L14.0059 1.96955C13.8406 2.08391 13.6117 2.00793 13.5477 1.8174L14.4955 1.49866ZM15.0319 3.45971C15.0675 3.32695 15.0631 3.18663 15.0193 3.05634L14.0715 3.37508C14.0525 3.31868 14.0506 3.25795 14.0661 3.20049L15.0319 3.45971ZM13.2203 7.51326C13.5928 7.61381 13.9762 7.39303 14.0762 7.02038L13.1104 6.76115C13.1537 6.59986 13.3196 6.50429 13.4809 6.54781L13.2203 7.51326ZM10.5219 6.73262C10.5932 6.78637 10.6741 6.82595 10.7603 6.84922L11.0209 5.88378C11.0582 5.89384 11.0932 5.91097 11.1241 5.93424L10.5219 6.73262ZM9.42721 4.6544C9.59159 4.77838 9.5865 5.02688 9.41717 5.14402L8.84824 4.32163C8.45706 4.59225 8.44529 5.16635 8.82505 5.45278L9.42721 4.6544ZM5.84931 9.5141L6.59136 9.13813L6.1394 8.24609L5.39735 8.62207L5.84931 9.5141ZM6.09677 8.97631L6.44425 9.66134L7.33607 9.20897L6.98859 8.52393L6.09677 8.97631ZM6.83396 9.18725L5.78876 8.8927L5.51751 9.8552L6.56271 10.1498L6.83396 9.18725ZM6.44425 9.66134C6.3122 9.40102 6.55301 9.10808 6.83396 9.18725L6.56271 10.1498C7.12024 10.3069 7.59811 9.72555 7.33607 9.20897L6.44425 9.66134ZM6.59136 9.13813C6.41009 9.22997 6.18869 9.15754 6.09677 8.97631L6.98859 8.52393C6.83076 8.21278 6.45062 8.08841 6.1394 8.24609L6.59136 9.13813ZM5.39735 8.62207C4.85689 8.8959 4.93436 9.69086 5.51751 9.8552L5.78876 8.8927C6.08262 8.97551 6.12166 9.37611 5.84931 9.5141L5.39735 8.62207ZM10.6363 8.62207L9.8943 8.24609L9.44233 9.13813L10.1844 9.5141L10.6363 8.62207ZM9.0451 8.52393L8.69762 9.20897L9.58945 9.66134L9.93692 8.97631L9.0451 8.52393ZM9.47098 10.1498L10.5162 9.8552L10.2449 8.8927L9.19973 9.18725L9.47098 10.1498ZM8.69762 9.20897C8.43558 9.72555 8.91345 10.3069 9.47098 10.1498L9.19973 9.18725C9.48068 9.10808 9.72149 9.40102 9.58945 9.66134L8.69762 9.20897ZM9.8943 8.24609C9.58307 8.08841 9.20293 8.21278 9.0451 8.52393L9.93692 8.97631C9.845 9.15754 9.6236 9.22997 9.44233 9.13813L9.8943 8.24609ZM10.1844 9.5141C9.91203 9.37611 9.95107 8.97551 10.2449 8.8927L10.5162 9.8552C11.0993 9.69086 11.1768 8.8959 10.6363 8.62207L10.1844 9.5141ZM7.42286 12.6076L7.48102 11.9678L6.48512 11.8773L6.42697 12.5171L7.42286 12.6076ZM7.40785 12.1063L7.51031 12.0219L6.8746 11.25L6.77214 11.3343L7.40785 12.1063ZM7.51031 12.0219C7.47394 12.0518 7.42829 12.0682 7.38118 12.0682V11.0682C7.19636 11.0682 7.01728 11.1325 6.8746 11.25L7.51031 12.0219ZM7.48102 11.9678C7.4761 12.0219 7.44975 12.0718 7.40785 12.1063L6.77214 11.3343C6.60777 11.4697 6.5044 11.6652 6.48512 11.8773L7.48102 11.9678ZM7.05631 12.2062C7.27274 12.2062 7.44245 12.3921 7.42286 12.6076L6.42697 12.5171C6.39332 12.8871 6.68471 13.2062 7.05631 13.2062V12.2062ZM9.60672 12.5171L9.54857 11.8773L8.55267 11.9678L8.61083 12.6076L9.60672 12.5171ZM9.26155 11.3343L9.15909 11.25L8.52338 12.0219L8.62584 12.1063L9.26155 11.3343ZM9.15909 11.25C9.01641 11.1325 8.83733 11.0682 8.65251 11.0682V12.0682C8.6054 12.0682 8.55975 12.0518 8.52338 12.0219L9.15909 11.25ZM9.54857 11.8773C9.52929 11.6652 9.42593 11.4697 9.26155 11.3343L8.62584 12.1063C8.58394 12.0718 8.55759 12.0219 8.55267 11.9678L9.54857 11.8773ZM8.97738 13.2062C9.34898 13.2062 9.64037 12.8871 9.60672 12.5171L8.61083 12.6076C8.59124 12.3921 8.76095 12.2062 8.97738 12.2062V13.2062ZM8.97738 12.2062H7.05631V13.2062H8.97738V12.2062ZM7.38118 12.0682H8.65251V11.0682H7.38118V12.0682Z" fill="white"/>
</svg>
