<svg width="29" height="29" viewBox="0 0 29 29" fill="none" xmlns="http://www.w3.org/2000/svg">
<path fill-rule="evenodd" clip-rule="evenodd" d="M14.0774 28.1001C21.8094 28.1001 28.0774 21.8321 28.0774 14.1001C28.0774 6.36811 21.8094 0.100098 14.0774 0.100098C6.34541 0.100098 0.0773926 6.36811 0.0773926 14.1001C0.0773926 21.8321 6.34541 28.1001 14.0774 28.1001ZM14.0774 28.1001C10.7637 28.1001 8.07739 25.4138 8.07739 22.1001C8.07739 18.7864 10.7637 16.1001 14.0774 16.1001C17.3911 16.1001 20.0774 18.7864 20.0774 22.1001C20.0774 25.4138 17.3911 28.1001 14.0774 28.1001ZM14.0774 28.1001C18.4957 28.1001 22.0774 24.5184 22.0774 20.1001C22.0774 15.6818 18.4957 12.1001 14.0774 12.1001C9.65911 12.1001 6.07739 15.6818 6.07739 20.1001C6.07739 24.5184 9.65911 28.1001 14.0774 28.1001ZM26.0774 16.1001C26.0774 22.7275 20.7048 28.1001 14.0774 28.1001C19.6002 28.1001 24.0774 23.6229 24.0774 18.1001C24.0774 12.5772 19.6002 8.1001 14.0774 8.1001C8.55454 8.1001 4.07739 12.5772 4.07739 18.1001C4.07739 23.6229 8.55454 28.1001 14.0774 28.1001C7.44998 28.1001 2.07739 22.7275 2.07739 16.1001C2.07739 9.47268 7.44998 4.1001 14.0774 4.1001C20.7048 4.1001 26.0774 9.47268 26.0774 16.1001Z" fill="white"/>
</svg>
