<svg width="15" height="15" viewBox="0 0 15 15" fill="none" xmlns="http://www.w3.org/2000/svg">
<path fill-rule="evenodd" clip-rule="evenodd" d="M7.49962 0.124756C3.35788 0.124756 0 3.48283 0 7.62514C0 10.9388 2.14846 13.75 5.12904 14.7411C5.50442 14.8105 5.64096 14.5796 5.64096 14.3801C5.64096 14.2025 5.63442 13.7311 5.63115 13.1046C3.54481 13.5582 3.10462 12.099 3.10462 12.099C2.76346 11.2326 2.27173 11.0023 2.27173 11.0023C1.59077 10.5373 2.32346 10.5463 2.32346 10.5463C3.07615 10.5996 3.47231 11.319 3.47231 11.319C4.14115 12.4651 5.22788 12.1334 5.655 11.9426C5.72288 11.4571 5.91712 11.1273 6.13115 10.9394C4.46596 10.7501 2.71519 10.1067 2.71519 7.23283C2.71519 6.41379 3.00731 5.74418 3.48692 5.21976C3.41019 5.03091 3.15231 4.26841 3.56058 3.23533C3.56058 3.23533 4.19019 3.03379 5.62327 4.00476C6.22115 3.83764 6.86288 3.75418 7.50077 3.75168C8.13769 3.75437 8.77962 3.83764 9.37827 4.00476C10.8104 3.03379 11.439 3.23533 11.439 3.23533C11.8483 4.26841 11.5906 5.03091 11.5137 5.21976C11.9944 5.74418 12.2844 6.41379 12.2844 7.23283C12.2844 10.1134 10.5312 10.748 8.86038 10.933C9.12923 11.1648 9.36923 11.6234 9.36923 12.3232C9.36923 13.3253 9.36019 14.134 9.36019 14.3799C9.36019 14.5809 9.495 14.8146 9.87577 14.7401C12.8531 13.7469 15 10.9378 15 7.62514C15 3.48283 11.6421 0.124756 7.49962 0.124756Z" fill="white"/>
</svg>
