<svg width="16" height="13" viewBox="0 0 16 13" fill="none" xmlns="http://www.w3.org/2000/svg">
<path d="M9.16467 2.1061C7.82136 2.66553 5.13473 3.82236 1.10825 5.57661C0.455585 5.83561 0.111986 6.09115 0.0809073 6.33978C0.0291086 6.75935 0.555729 6.9251 1.27228 7.15129L1.57444 7.24626C2.2789 7.4759 3.22854 7.74352 3.72063 7.75388C4.16955 7.76424 4.66854 7.58122 5.21933 7.20136C8.98165 4.6615 10.9241 3.37862 11.045 3.351C11.1313 3.33028 11.2522 3.3061 11.3316 3.37862C11.4127 3.44941 11.4041 3.58582 11.3955 3.62208C11.3437 3.84481 9.2769 5.76481 8.20812 6.75935C7.87488 7.07014 7.63833 7.28942 7.58999 7.33949C7.48353 7.44829 7.37531 7.55536 7.26538 7.66065C6.60927 8.29259 6.11891 8.76569 7.29128 9.53921C7.85589 9.91216 8.30826 10.2178 8.75891 10.5251C9.24927 10.8601 9.73963 11.1933 10.375 11.6112C10.5356 11.7148 10.691 11.827 10.8412 11.934C11.4127 12.3415 11.929 12.7076 12.5627 12.6489C12.9322 12.6143 13.3137 12.269 13.5071 11.233C13.9647 8.7864 14.8642 3.4874 15.0714 1.30322C15.0841 1.12165 15.0766 0.939244 15.049 0.759335C15.0327 0.614163 14.9625 0.480415 14.8522 0.384658C14.6951 0.276209 14.5078 0.220023 14.3169 0.224082C13.7989 0.232716 12.9995 0.510701 9.16467 2.1061Z" fill="white"/>
</svg>
